<?xml version="1.0" encoding="utf-8"?>
<!-- Generator: Adobe Illustrator 16.0.0, SVG Export Plug-In . SVG Version: 6.00 Build 0)  -->
<!DOCTYPE svg PUBLIC "-//W3C//DTD SVG 1.1//EN" "http://www.w3.org/Graphics/SVG/1.1/DTD/svg11.dtd">
<svg version="1.1" id="Слой_1" xmlns="http://www.w3.org/2000/svg" xmlns:xlink="http://www.w3.org/1999/xlink" x="0px" y="0px"
	 width="56px" height="60px" viewBox="0 0 56 60" enable-background="new 0 0 56 60" xml:space="preserve">
<path fill="#008EAF" d="M2.979,14.489c0,0-5.391,3.302,1.284,10.219l0.731,0.475l8.331-11.822l-7.087-0.223L2.979,14.489z"/>
<path fill="none" d="M36.462,22.511l1.288,0.344l-0.145-12.621l-4.134-1.98C31.75,7.349,29.748,6.888,27.7,6.716
	C27.777,6.779,32.999,11.009,36.462,22.511"/>
<path fill="#FFFFFF" d="M51.532,35.217l-0.012-0.006c1.386-3.645,1.942-6.713,1.942-6.713s1.241-6.191,0.145-12.753
	c0,0-0.215-4.379-5.646-4.379c-1.087,0-2.383,0.174-3.934,0.596L43.959,12c-2.061-2.567-3.894-4.241-3.894-4.241
	s-4.578-4.343-10.714-6.904c0,0-0.899-0.504-2.144-0.504c-1.854,0-4.49,1.107-6.16,6.604L20.987,7.82l13.41,1.423
	c0.891,2.351,1.175,4.016,1.175,4.016s0.434,1.505,1.104,9.141c0.615,6.971,1.748,10.883,1.94,11.51
	c-5.647,4.355-8.135,7.344-8.135,7.344l-0.168,0.172c-6.915-3.021-10.963-3.779-10.963-3.779l-0.293-0.074
	c-0.852-7.364-2.196-11.184-2.196-11.184l-0.064-0.224c-0.048,0.036-0.097,0.067-0.145,0.103c6.24-4.449,9.006-7.59,9.006-7.59
	l0.948-0.933l-10.964-6.26l-3.793,2.563c-6.904,4.281-9.536,16.715-9.536,16.715S0.894,36.918,1.799,43.51
	c0,0,0.122,6.32,9.466,4.059l0.012-0.006c2.419,3.057,4.77,5.105,4.77,5.105s4.685,4.234,10.881,6.65c0,0,5.569,2.965,8.145-6.268
	c3.76-0.568,6.611-1.541,6.611-1.541s6.008-1.934,11.212-6.088C52.897,45.42,58.262,42.082,51.532,35.217z M6.47,34.9
	c0.057-0.07,0.112-0.135,0.169-0.203c-0.056,0.064-0.112,0.143-0.168,0.209L6.47,34.9z M8.698,32.439
	c-0.097,0.096-0.202,0.197-0.316,0.314C8.498,32.637,8.6,32.535,8.698,32.439z M9.336,31.852c0,0-0.025,0.021-0.067,0.059
	C9.312,31.873,9.336,31.852,9.336,31.852z M9.251,31.926c-0.042,0.035-0.1,0.088-0.172,0.154
	C9.154,32.012,9.209,31.961,9.251,31.926z M6.734,34.582c0.174-0.211,0.34-0.408,0.502-0.594
	C7.074,34.174,6.907,34.371,6.734,34.582z M7.349,33.861c0.153-0.174,0.3-0.336,0.44-0.488C7.648,33.525,7.502,33.688,7.349,33.861z
	"/>
<path fill="#02C5FF" d="M14.229,8.485c0,0-6.021,1.893-11.251,6.003c7.339-1.712,13.864,0.605,13.864,0.605s1.523,0.354,8.524,3.486
	c6.991,3.135,11.094,3.931,11.094,3.931l1.288,0.344l-0.144-12.621l-4.134-1.98c-2.301-1.214-5.104-1.625-7.848-1.625
	C19.799,6.629,14.229,8.485,14.229,8.485"/>
</svg>
