<?xml version="1.0" encoding="utf-8"?>
<!-- Generator: Adobe Illustrator 16.0.0, SVG Export Plug-In . SVG Version: 6.00 Build 0)  -->
<!DOCTYPE svg PUBLIC "-//W3C//DTD SVG 1.1//EN" "http://www.w3.org/Graphics/SVG/1.1/DTD/svg11.dtd">
<svg version="1.1" id="Слой_1" xmlns="http://www.w3.org/2000/svg" xmlns:xlink="http://www.w3.org/1999/xlink" x="0px" y="0px"
	 width="20px" height="20px" viewBox="0 0 20 20" enable-background="new 0 0 20 20" xml:space="preserve">
<g>
	<path d="M10.001,10.099c2.325,0,4.208-1.813,4.208-4.049c0-2.236-1.881-4.048-4.203-4.05H9.995
		C7.674,2.003,5.792,3.814,5.792,6.051C5.792,8.286,7.676,10.099,10.001,10.099z M10.001,4.058c1.143,0,2.072,0.892,2.072,1.993
		c0,1.099-0.929,1.991-2.072,1.991c-1.143,0-2.071-0.892-2.071-1.991C7.931,4.95,8.858,4.058,10.001,4.058z"/>
	<path d="M14.853,10.593c-0.236-0.459-0.896-0.841-1.771-0.18c-1.183,0.896-3.081,0.896-3.081,0.896s-1.9,0-3.081-0.896
		c-0.875-0.663-1.533-0.28-1.77,0.18c-0.414,0.798,0.053,1.188,1.109,1.839c0.903,0.558,2.143,0.765,2.943,0.842L8.533,13.92
		c-0.942,0.904-1.85,1.777-2.48,2.387c-0.376,0.361-0.376,0.95,0,1.313l0.114,0.108C6.354,17.91,6.601,18,6.849,18
		c0.247,0,0.493-0.09,0.682-0.271l2.48-2.39c0.941,0.909,1.85,1.783,2.479,2.388c0.378,0.364,0.989,0.364,1.366,0l0.112-0.106
		c0.377-0.362,0.377-0.95,0-1.313l-2.48-2.388l-0.669-0.645c0.801-0.079,2.027-0.289,2.922-0.843
		c0.792-0.487,1.251-0.827,1.259-1.305v-0.009C15.004,10.961,14.956,10.789,14.853,10.593z"/>
</g>
</svg>
