<?xml version="1.0" encoding="utf-8"?>
<!-- Generator: Adobe Illustrator 16.0.0, SVG Export Plug-In . SVG Version: 6.00 Build 0)  -->
<!DOCTYPE svg PUBLIC "-//W3C//DTD SVG 1.1//EN" "http://www.w3.org/Graphics/SVG/1.1/DTD/svg11.dtd">
<svg version="1.1" id="Слой_1" xmlns="http://www.w3.org/2000/svg" xmlns:xlink="http://www.w3.org/1999/xlink" x="0px" y="0px"
	 width="20px" height="20px" viewBox="0 0 20 20" enable-background="new 0 0 20 20" xml:space="preserve">
<path d="M12.456,17.5h-0.008h-0.473H10.25C7.363,17.5,5,14.877,5,11.672V8.66V7.952V4.387
	C5,3.35,5.766,2.5,6.701,2.5l0,0c0.935,0,1.7,0.849,1.7,1.888V5.69v0.556h3.575h1.137h0.162C14.224,6.246,15,7.107,15,8.161l0,0
	c0,1.053-0.777,1.914-1.726,1.914h-0.162h-1.137H8.4v1.874c0,0.945,0.698,1.72,1.55,1.72h2.025h0.764h0.535
	c0.95,0,1.726,0.864,1.726,1.915l0,0c0,1.055-0.776,1.916-1.726,1.916H12.456z"/>
</svg>
