<?xml version="1.0" encoding="utf-8"?>
<!-- Generator: Adobe Illustrator 16.0.0, SVG Export Plug-In . SVG Version: 6.00 Build 0)  -->
<!DOCTYPE svg PUBLIC "-//W3C//DTD SVG 1.1//EN" "http://www.w3.org/Graphics/SVG/1.1/DTD/svg11.dtd">
<svg version="1.1" id="Слой_1" xmlns="http://www.w3.org/2000/svg" xmlns:xlink="http://www.w3.org/1999/xlink" x="0px" y="0px"
	 width="20px" height="20px" viewBox="0 0 20 20" enable-background="new 0 0 20 20" xml:space="preserve">
<g>
	<path d="M6.862,5.48c0.491-0.178,0.865-0.405,1.254-0.435c0.789-0.063,1.591-0.054,2.383-0.01c0.797,0.045,1.055,0.34,1.065,1.131
		c0.007,0.567-0.033,1.133-0.052,1.7c-0.011,0.315-0.068,0.641-0.007,0.943c0.069,0.347,0.249,0.673,0.38,1.008
		c0.308-0.195,0.722-0.323,0.9-0.597c0.627-0.95,1.238-1.921,1.724-2.944c0.3-0.632,0.634-0.914,1.351-0.863
		c0.75,0.052,1.506-0.003,2.258-0.003c0.855-0.001,1.103,0.313,0.681,1.044c-0.525,0.911-1.132,1.786-1.781,2.619
		c-1.401,1.802-1.155,1.679,0.206,3.016c0.545,0.535,1.074,1.098,1.523,1.709c0.478,0.654,0.249,1.1-0.555,1.149
		c-0.858,0.054-1.722,0.059-2.582,0.046c-0.696-0.01-1.193-0.423-1.642-0.896c-0.366-0.386-0.709-0.795-1.103-1.149
		c-0.516-0.456-0.948-0.341-1.174,0.299c-0.088,0.256-0.121,0.534-0.136,0.807c-0.027,0.511-0.248,0.686-0.803,0.728
		c-2.879,0.229-5.031-0.951-6.523-3.261C3.11,9.784,2.14,7.957,1.128,6.154C0.86,5.672,1.015,5.436,1.568,5.417
		C2.386,5.39,3.203,5.407,4.021,5.409c0.489,0,0.681,0.331,0.882,0.707c0.535,1.001,1.072,2.01,1.688,2.966
		c0.214,0.333,0.665,0.519,1.006,0.772c0.163-0.405,0.382-0.8,0.471-1.22C8.149,8.251,8.091,7.84,8.087,7.44
		C8.074,6.297,7.988,6.146,6.862,5.48z"/>
</g>
</svg>
